<?xml version="1.0" encoding="utf-8"?>
<!-- Generator: Adobe Illustrator 19.2.1, SVG Export Plug-In . SVG Version: 6.00 Build 0)  -->
<svg version="1.1" id="Слой_1" xmlns="http://www.w3.org/2000/svg" xmlns:xlink="http://www.w3.org/1999/xlink" x="0px" y="0px"
	 viewBox="0 0 384.6 644.3" style="enable-background:new 0 0 384.6 644.3;" xml:space="preserve">
<style type="text/css">
	.st0{display:none;enable-background:new    ;}
	.st1{display:inline;}
</style>
<path fill="currentColor" d="M234,599.8l75.6-76l-45-44.8l-44.3,44.5l-1.1-140.7c42-6,79.5-25.5,107.9-54.1c34.5-34.7,55.6-82.8,55.2-135.9
	C381.4,86.6,294.6,0.3,188.3,0C135.2-0.1,87.3,21.3,52.8,56C18.3,90.7-2.9,138.7-2.4,191.8c0.7,94.1,69,172.6,158.4,189.5l1.2,142
	l-45-44.7l-44.3,44.6l76.8,76.4l45,44.8L234,599.8z M60.7,192c-0.3-34.5,12.9-66.9,37.1-91.2s56.5-37.7,91-37.6
	c34.5,0.1,67.1,13.6,91.7,38.1c24.6,24.5,38.3,56.9,38.6,91.4c0.3,34.5-12.9,66.9-37.1,91.2c-24.2,24.3-56.5,37.7-91,37.6
	c-34.5-0.1-67.1-13.6-91.7-38.1S61,226.5,60.7,192z"/>
</svg>
